<?xml version="1.0" encoding="UTF-8" standalone="no"?>
<svg
   xmlns:dc="http://purl.org/dc/elements/1.1/"
   xmlns:cc="http://creativecommons.org/ns#"
   xmlns:rdf="http://www.w3.org/1999/02/22-rdf-syntax-ns#"
   xmlns:svg="http://www.w3.org/2000/svg"
   xmlns="http://www.w3.org/2000/svg"
   xmlns:sodipodi="http://sodipodi.sourceforge.net/DTD/sodipodi-0.dtd"
   xmlns:inkscape="http://www.inkscape.org/namespaces/inkscape"
   width="100"
   height="100"
   viewBox="0 0 80 80"
   version="1.1"
   id="svg2"
   inkscape:version="0.48.4 r9939"
   sodipodi:docname="do_not_tumble_dry.svg">
  <metadata
     id="metadata17">
    <rdf:RDF>
      <cc:Work
         rdf:about="">
        <dc:format>image/svg+xml</dc:format>
        <dc:type
           rdf:resource="http://purl.org/dc/dcmitype/StillImage" />
        <dc:title></dc:title>
      </cc:Work>
    </rdf:RDF>
  </metadata>
  <defs
     id="defs15" />
  <sodipodi:namedview
     pagecolor="#ffffff"
     bordercolor="#666666"
     borderopacity="1"
     objecttolerance="10"
     gridtolerance="10"
     guidetolerance="10"
     inkscape:pageopacity="0"
     inkscape:pageshadow="2"
     inkscape:window-width="960"
     inkscape:window-height="1028"
     id="namedview13"
     showgrid="false"
     inkscape:zoom="4.2623739"
     inkscape:cx="48.726683"
     inkscape:cy="13.185603"
     inkscape:window-x="960"
     inkscape:window-y="24"
     inkscape:window-maximized="0"
     inkscape:current-layer="svg2" />
  <g
     id="surface1"
     transform="matrix(1.9384766,0,0,1.9368631,-1.9093979,11.277754)">
    <path
       style="fill:none;stroke:#211e1e;stroke-width:22.5;stroke-linecap:butt;stroke-linejoin:miter;stroke-miterlimit:4;stroke-opacity:1"
       d="m 83.359375,18.398438 262.773435,0 0,260.703122 -262.773435,0 z m 0,0"
       transform="matrix(0.1,0,0,-0.1,0,30)"
       id="path5"
       inkscape:connector-curvature="0" />
    <path
       style="fill:none;stroke:#211e1e;stroke-width:22.5;stroke-linecap:butt;stroke-linejoin:miter;stroke-miterlimit:4;stroke-opacity:1"
       d="m 115.54688,148.4375 c 0,54.6875 44.33593,99.02344 99.06249,99.02344 54.6875,0 99.02344,-44.33594 99.02344,-99.02344 0,-54.6875 -44.33594,-99.023438 -99.02344,-99.023438 -54.72656,0 -99.06249,44.335938 -99.06249,99.023438 z m 0,0"
       transform="matrix(0.1,0,0,-0.1,0,30)"
       id="path7"
       inkscape:connector-curvature="0" />
    <path
       style="fill:none;stroke:#211e1e;stroke-width:30;stroke-linecap:butt;stroke-linejoin:miter;stroke-miterlimit:4;stroke-opacity:1"
       d="M 29.882812,65.976562 407.53906,234.0625"
       transform="matrix(0.1,0,0,-0.1,0,30)"
       id="path9"
       inkscape:connector-curvature="0" />
    <path
       style="fill:none;stroke:#211e1e;stroke-width:30;stroke-linecap:butt;stroke-linejoin:miter;stroke-miterlimit:4;stroke-opacity:1"
       d="M 24.84375,231.25 407.53906,65.976562"
       transform="matrix(0.1,0,0,-0.1,0,30)"
       id="path11"
       inkscape:connector-curvature="0" />
  </g>
  <path
     style="fill:#ffffff"
     d="m 15.271148,77.500338 c 0,-4.064636 -0.08719,-7.390247 -0.193766,-7.390247 -0.106571,0 -2.077547,0.844355 -4.379946,1.876348 -2.3023987,1.031991 -4.2388081,1.823721 -4.3031314,1.759398 -0.3190185,-0.31902 -2.7750665,-6.12046 -2.6483973,-6.255791 0.080633,-0.08615 2.7077921,-1.29076 5.8381322,-2.676919 L 15.275567,62.292836 15.214705,50.906672 15.153842,39.520506 8.819344,36.780445 C 4.459529,34.894556 2.5088584,33.93955 2.5618748,33.716923 c 0.078811,-0.330942 2.4082945,-5.879007 2.538966,-6.046982 0.039729,-0.05107 2.1722806,0.817995 4.7390038,1.931258 2.5667234,1.113262 4.8387894,2.090124 5.0490364,2.170803 0.348465,0.133719 0.382267,-0.52975 0.382267,-7.50327 l 0,-7.64996 34.370518,0 34.370518,0 0,7.507553 c 0,4.129155 0.03993,7.507554 0.08873,7.507554 0.0488,0 2.45063,-1.050198 5.337401,-2.333774 2.886772,-1.283575 5.319278,-2.260144 5.40557,-2.170152 0.371164,0.387076 2.734049,6.044158 2.586526,6.192509 -0.08948,0.08999 -3.1188,1.476675 -6.73181,3.081532 l -6.569109,2.917922 -0.06091,11.140236 -0.06091,11.140236 6.630016,2.864394 c 3.646511,1.575416 6.697754,2.935381 6.780541,3.022142 0.11144,0.116792 -2.166086,5.85272 -2.514662,6.333147 -0.03013,0.04153 -2.308263,-0.894482 -5.062514,-2.080026 -2.754252,-1.185544 -5.192487,-2.208406 -5.4183,-2.273024 -0.385119,-0.110207 -0.41057,0.364137 -0.41057,7.652038 l 0,7.769527 -34.370518,0 -34.370518,0 0,-7.390248 z m 63.524711,-4.150382 -0.06242,-6.379184 -3.108261,-1.344591 -3.108261,-1.344589 -0.8058,1.213319 c -2.414208,3.635151 -6.426534,7.179858 -10.338896,9.133948 -3.190902,1.593743 -8.12657,2.751408 -11.730552,2.751408 -8.153456,0 -16.384874,-4.124291 -21.193218,-10.618705 l -1.48589,-2.006924 -2.619803,1.176657 c -1.440892,0.64716 -2.910135,1.281804 -3.264984,1.410317 l -0.64518,0.233659 0,6.076937 0,6.076935 29.212845,0 29.212846,0 -0.06242,-6.379187 z M 54.656944,71.499291 c 2.14049,-0.496759 5.20303,-1.833871 6.990544,-3.052086 2.393797,-1.631408 6.290241,-5.86027 5.797351,-6.291945 -0.250112,-0.219046 -17.259767,-7.53718 -17.508302,-7.532666 -0.290045,0.0053 -17.640036,7.754128 -17.865903,7.979277 -0.336472,0.335402 2.136431,3.190991 4.188227,4.836363 5.14955,4.129514 11.7886,5.594969 18.398083,4.061057 l 0,0 z M 24.066087,58.379538 c 0.03066,0 -0.146916,-0.818206 -0.39462,-1.818235 -0.880132,-3.55326 -0.82098,-7.690694 0.177728,-12.431315 0.15825,-0.751173 0.142883,-0.767091 -1.415568,-1.466319 -0.866554,-0.388797 -1.671287,-0.706904 -1.788295,-0.706904 -0.123561,0 -0.212741,3.783898 -0.212741,9.026601 l 0,9.026604 1.788872,-0.815217 c 0.98388,-0.448368 1.813961,-0.815215 1.844624,-0.815215 z m 54.784654,-7.85947 c 0,-4.838853 -0.03961,-8.797914 -0.08802,-8.797914 -0.04841,0 -0.885106,0.363246 -1.859326,0.807212 l -1.771311,0.807212 0.316756,1.200768 c 0.877597,3.326812 0.918,8.805715 0.08921,12.097141 -0.14669,0.582556 -0.223349,1.10255 -0.170358,1.155544 0.138428,0.138428 3.097023,1.489818 3.307087,1.510569 0.09678,0.0096 0.175958,-3.941679 0.175958,-8.780532 z M 37.507465,52.40354 c 1.971606,-0.877755 3.547939,-1.632717 3.502959,-1.677697 -0.04498,-0.04498 -2.765834,-1.238558 -6.046351,-2.652402 -4.160721,-1.793198 -6.011659,-2.486 -6.12027,-2.290803 -0.08564,0.1539 -0.278986,1.314981 -0.429667,2.580179 -0.271231,2.277414 -0.192667,4.306392 0.257737,6.656129 l 0.232764,1.214326 2.509046,-1.116908 c 1.379973,-0.614301 4.122175,-1.835072 6.093782,-2.712824 l 0,0 z m 33.166258,2.0571 c 0.388769,-2.059123 0.147298,-8.412024 -0.338192,-8.897514 -0.112186,-0.112186 -11.41002,4.921431 -11.419374,5.087768 -0.0085,0.151261 11.327468,5.098016 11.4582,5.000092 0.0478,-0.03581 0.182518,-0.571463 0.299366,-1.190346 l 0,0 z M 58.46882,43.101151 c 4.693734,-2.080346 8.627368,-3.86813 8.741408,-3.972853 0.282615,-0.259524 -1.152484,-2.166878 -2.845128,-3.781385 -5.83152,-5.562329 -14.553906,-7.346049 -22.254251,-4.550974 -3.418553,1.240869 -7.597239,4.370169 -9.637402,7.217183 l -0.745446,1.040258 8.956832,3.891532 c 4.926258,2.14034 9.022778,3.90214 9.103378,3.915107 0.0806,0.01297 3.986872,-1.678523 8.680609,-3.758868 z M 30.89191,32.009402 c 2.805228,-2.796179 6.822475,-5.278027 10.421064,-6.438111 9.823789,-3.166914 20.542454,-0.434954 27.566798,7.026189 0.903252,0.959421 2.01179,2.293703 2.463416,2.965072 0.451626,0.671369 0.936525,1.223393 1.077552,1.226721 0.141029,0.0033 1.619079,-0.607589 3.284555,-1.357591 l 3.028141,-1.36364 0.06255,-6.143914 0.06255,-6.143913 -29.212972,0 -29.21297,0 0,6.191649 0,6.191649 2.170152,0.950219 c 1.193584,0.52262 2.639491,1.148863 3.213127,1.391651 l 1.042975,0.441432 1.322264,-1.776677 c 0.727245,-0.977172 1.947105,-2.399503 2.710801,-3.160736 z"
     id="path3245"
     inkscape:connector-curvature="0"
     transform="scale(0.8,0.8)" />
</svg>
