<?xml version="1.0" encoding="UTF-8" standalone="no"?>
<svg
   xmlns:dc="http://purl.org/dc/elements/1.1/"
   xmlns:cc="http://creativecommons.org/ns#"
   xmlns:rdf="http://www.w3.org/1999/02/22-rdf-syntax-ns#"
   xmlns:svg="http://www.w3.org/2000/svg"
   xmlns="http://www.w3.org/2000/svg"
   xmlns:sodipodi="http://sodipodi.sourceforge.net/DTD/sodipodi-0.dtd"
   xmlns:inkscape="http://www.inkscape.org/namespaces/inkscape"
   width="100"
   height="100"
   viewBox="0 0 80 80"
   version="1.1"
   id="svg2"
   inkscape:version="0.48.4 r9939"
   sodipodi:docname="do_not_steam.svg">
  <metadata
     id="metadata19">
    <rdf:RDF>
      <cc:Work
         rdf:about="">
        <dc:format>image/svg+xml</dc:format>
        <dc:type
           rdf:resource="http://purl.org/dc/dcmitype/StillImage" />
        <dc:title></dc:title>
      </cc:Work>
    </rdf:RDF>
  </metadata>
  <defs
     id="defs17" />
  <sodipodi:namedview
     pagecolor="#ffffff"
     bordercolor="#666666"
     borderopacity="1"
     objecttolerance="10"
     gridtolerance="10"
     guidetolerance="10"
     inkscape:pageopacity="0"
     inkscape:pageshadow="2"
     inkscape:window-width="960"
     inkscape:window-height="1028"
     id="namedview15"
     showgrid="false"
     inkscape:zoom="3.1466667"
     inkscape:cx="35.780816"
     inkscape:cy="49.359499"
     inkscape:window-x="960"
     inkscape:window-y="24"
     inkscape:window-maximized="0"
     inkscape:current-layer="svg2" />
  <g
     id="surface1"
     transform="matrix(1.9288809,0,0,1.9288855,6.2067461,10.178643)">
    <path
       style="fill:none;stroke:#211e1e;stroke-width:22.5;stroke-linecap:butt;stroke-linejoin:miter;stroke-miterlimit:4;stroke-opacity:1"
       d="m 108.32031,282.73437 192.1875,0 40.85938,-169.49218 -320.820315,0 c 0,0 6.640625,66.67968 50.195313,101.09375 7.578124,5.97656 25.234374,7.85156 25.234374,7.85156 l 213.632808,0"
       transform="matrix(0.1,0,0,-0.1,0,30)"
       id="path5"
       inkscape:connector-curvature="0" />
    <path
       style="fill:none;stroke:#211e1e;stroke-width:30;stroke-linecap:butt;stroke-linejoin:miter;stroke-miterlimit:4;stroke-opacity:1"
       d="M 194.92187,110.70313 234.49219,15.234375"
       transform="matrix(0.1,0,0,-0.1,0,30)"
       id="path7"
       inkscape:connector-curvature="0" />
    <path
       style="fill:none;stroke:#211e1e;stroke-width:30;stroke-linecap:butt;stroke-linejoin:miter;stroke-miterlimit:4;stroke-opacity:1"
       d="M 146.79687,113.00781 104.10156,15.234375"
       transform="matrix(0.1,0,0,-0.1,0,30)"
       id="path9"
       inkscape:connector-curvature="0" />
    <path
       style="fill:none;stroke:#211e1e;stroke-width:17.5;stroke-linecap:butt;stroke-linejoin:miter;stroke-miterlimit:3.8636899;stroke-opacity:1"
       d="M 43.203125,83.4375 298.4375,20.15625"
       transform="matrix(0.1,0,0,-0.1,0,30)"
       id="path11"
       inkscape:connector-curvature="0" />
    <path
       style="fill:none;stroke:#211e1e;stroke-width:17.5;stroke-linecap:butt;stroke-linejoin:miter;stroke-miterlimit:3.8636899;stroke-opacity:1"
       d="m 42.1875,20.15625 256.25,63.28125"
       transform="matrix(0.1,0,0,-0.1,0,30)"
       id="path13"
       inkscape:connector-curvature="0" />
  </g>
  <path
     style="fill:#ffffff"
     d="m 33.206663,81.352073 c -1.573093,-0.687309 -2.988832,-1.43592 -3.146086,-1.663583 -0.228647,-0.331017 -1.247148,-0.175983 -5.084746,0.773994 -2.639356,0.653355 -5.169978,1.272483 -5.623605,1.375837 -0.780316,0.177785 -0.846083,0.0927 -1.220046,-1.578337 -0.217399,-0.971441 -0.316849,-1.844676 -0.221,-1.940527 0.134326,-0.134323 8.634454,-2.301705 13.424486,-3.423 0.457161,-0.107018 0.941894,-0.780928 1.519219,-2.112127 0.466315,-1.075233 0.807734,-1.988282 0.75871,-2.029001 -0.04902,-0.04072 -3.521338,-0.896997 -7.716253,-1.902842 -4.194916,-1.005842 -7.718718,-1.881369 -7.830673,-1.945614 -0.111954,-0.06424 0.0079,-0.956114 0.266274,-1.981936 l 0.469827,-1.865126 8.12484,2.035882 c 4.468662,1.119737 8.235063,1.922056 8.369779,1.782931 0.239631,-0.247472 2.835122,-6.019875 2.835122,-6.305346 0,-0.07955 -6.382301,-0.144642 -14.182891,-0.144642 l -14.182891,0 0.2157351,-1.668432 C 11.389083,47.881826 15.445641,38.86468 21.561534,33.02159 c 2.016109,-1.926179 2.816709,-2.461068 4.65645,-3.111018 l 2.22173,-0.784901 25.979873,-0.08836 c 17.72931,-0.0603 25.979873,-0.193398 25.979873,-0.419103 0,-0.289789 -1.018246,-4.493021 -1.936472,-7.993594 l -0.312604,-1.191737 -22.074613,0 -22.074616,0 0,-2.542373 0,-2.542372 24.11298,0 24.112976,0 1.161064,4.846398 c 0.638586,2.665519 3.126969,12.997881 5.529743,22.960805 l 4.36868,18.114406 -16.963792,0.08223 c -13.351484,0.06472 -16.931027,0.166223 -16.809918,0.476695 1.724831,4.421698 2.630323,6.27258 3.065094,6.265261 0.27586,-0.0046 4.099951,-0.91425 8.497983,-2.021345 l 7.996424,-2.012901 0.474568,1.883958 c 0.349647,1.388028 0.377915,1.918017 0.107393,2.013334 -0.20195,0.07116 -3.727878,0.935504 -7.835399,1.920769 -4.107521,0.985268 -7.595548,1.909897 -7.75117,2.054733 -0.162855,0.15157 0.0093,0.983314 0.405524,1.959636 l 0.688475,1.696293 7.418103,1.84364 7.418104,1.843636 -0.476066,1.889902 c -0.371802,1.475981 -0.588848,1.85631 -0.991001,1.736523 -1.310265,-0.390273 -10.851196,-2.723463 -11.136848,-2.723463 -0.177165,0 -0.256106,0.178761 -0.175421,0.397246 0.17947,0.485971 -5.824525,2.978412 -6.203103,2.575096 -0.139945,-0.149088 -0.704756,-1.363312 -1.255135,-2.698274 l -1.000694,-2.427203 -4.585938,-1.148009 c -2.522266,-0.631404 -4.905254,-1.148008 -5.295531,-1.148008 -0.390276,0 -2.890582,0.526903 -5.556235,1.170896 l -4.846637,1.170893 -1.162675,2.722115 c -0.639471,1.497162 -1.181393,2.741514 -1.204272,2.765225 -0.02288,0.02371 -1.328674,-0.519232 -2.901768,-1.20654 z M 51.966337,69.764414 c 1.829956,-0.458542 3.322811,-0.92332 3.317457,-1.032839 -0.0053,-0.109519 -0.759868,-1.986731 -1.676699,-4.171583 l -1.666963,-3.972457 -3.129995,0 -3.129998,0 -1.708135,3.918241 c -0.939476,2.15503 -1.708137,4.033507 -1.708137,4.174389 0,0.140879 1.394332,0.616335 3.098517,1.056562 1.704184,0.440228 3.138623,0.814135 3.187639,0.830908 0.04902,0.01678 1.586359,-0.344679 3.416314,-0.803221 z M 86.737894,54.946645 c -0.0096,-0.218485 -1.128636,-4.973517 -2.486698,-10.566737 l -2.4692,-10.169492 -26.194446,0 c -20.195363,0 -26.496987,0.09196 -27.515464,0.40152 -2.822781,0.857977 -6.304771,4.96505 -8.992115,10.606372 -1.483725,3.114662 -3.193223,8.214179 -3.193223,9.525541 0,0.584603 0.91166,0.600042 35.434322,0.600042 28.144926,0 35.430721,-0.08172 35.416824,-0.397246 z"
     id="path3266"
     inkscape:connector-curvature="0"
     transform="scale(0.8,0.8)" />
</svg>
