<?xml version="1.0" encoding="UTF-8" standalone="no"?>
<svg
   xmlns:dc="http://purl.org/dc/elements/1.1/"
   xmlns:cc="http://creativecommons.org/ns#"
   xmlns:rdf="http://www.w3.org/1999/02/22-rdf-syntax-ns#"
   xmlns:svg="http://www.w3.org/2000/svg"
   xmlns="http://www.w3.org/2000/svg"
   xmlns:sodipodi="http://sodipodi.sourceforge.net/DTD/sodipodi-0.dtd"
   xmlns:inkscape="http://www.inkscape.org/namespaces/inkscape"
   width="100"
   height="100"
   viewBox="0 0 80 80"
   version="1.1"
   id="svg2"
   inkscape:version="0.48.4 r9939"
   sodipodi:docname="do_not_wring.svg">
  <metadata
     id="metadata15">
    <rdf:RDF>
      <cc:Work
         rdf:about="">
        <dc:format>image/svg+xml</dc:format>
        <dc:type
           rdf:resource="http://purl.org/dc/dcmitype/StillImage" />
        <dc:title></dc:title>
      </cc:Work>
    </rdf:RDF>
  </metadata>
  <defs
     id="defs13" />
  <sodipodi:namedview
     pagecolor="#ffffff"
     bordercolor="#666666"
     borderopacity="1"
     objecttolerance="10"
     gridtolerance="10"
     guidetolerance="10"
     inkscape:pageopacity="0"
     inkscape:pageshadow="2"
     inkscape:window-width="960"
     inkscape:window-height="1028"
     id="namedview11"
     showgrid="false"
     inkscape:zoom="6.3219512"
     inkscape:cx="36.760751"
     inkscape:cy="26.669451"
     inkscape:window-x="960"
     inkscape:window-y="24"
     inkscape:window-maximized="0"
     inkscape:current-layer="svg2" />
  <g
     id="surface1"
     transform="matrix(1.5980087,0,0,1.6226639,6.9378414,16.162861)">
    <path
       style="fill:none;stroke:#211e1e;stroke-width:20;stroke-linecap:butt;stroke-linejoin:bevel;stroke-miterlimit:4;stroke-opacity:1"
       d="m 158.78906,196.79687 -118.32031,0 c 0,0 -18.320312,6.67969 -21.679688,-11.64062 -3.320312,-18.35938 -1.640624,-76.67969 -1.640624,-76.67969 0,0 -3.359376,-31.679685 33.320312,-16.679685 36.679688,15.000005 81.67969,64.999995 103.32031,96.679685 21.67969,31.67969 73.35938,15 91.67969,16.67969 18.32031,1.64062 73.32031,-45 73.32031,-45 0,0 30,28.32031 78.35938,36.64062 0,0 0,-74.99999 0,-94.99999 0,-20.000005 -68.35938,-28.320318 -123.35938,3.35937 l 36.67969,55 c 0,0 -83.32031,-150 -208.32031,-41.67969"
       transform="matrix(0.1,0,0,-0.1,0,29)"
       id="path5"
       inkscape:connector-curvature="0" />
    <path
       style="fill:#211e1e;fill-opacity:1;fill-rule:nonzero;stroke:#211e1e;stroke-width:27.74300003;stroke-linecap:butt;stroke-linejoin:bevel;stroke-miterlimit:4;stroke-opacity:1"
       d="M 48.75,272.5 371.25,23.75"
       transform="matrix(0.1,0,0,-0.1,0,29)"
       id="path7"
       inkscape:connector-curvature="0" />
    <path
       style="fill:none;stroke:#211e1e;stroke-width:27.74300003;stroke-linecap:butt;stroke-linejoin:bevel;stroke-miterlimit:4;stroke-opacity:1"
       d="M 47.5,23.75 368.75,272.5"
       transform="matrix(0.1,0,0,-0.1,0,29)"
       id="path9"
       inkscape:connector-curvature="0" />
  </g>
  <path
     style="fill:#ffffff"
     d="m 70.884064,68.302831 -10.150991,-7.973953 -1.2428,0.770809 c -4.225276,2.6206 -8.004,3.74215 -12.542794,3.722786 -3.154292,-0.01346 -5.163651,-0.399528 -8.321033,-1.598777 l -1.440249,-0.547041 -8.573799,6.744848 c -4.715589,3.709666 -8.642291,6.722016 -8.726005,6.69411 -0.231462,-0.07715 -3.282762,-3.987256 -3.208883,-4.112037 0.03549,-0.05995 3.520141,-2.827559 7.743661,-6.150249 4.223521,-3.322689 7.620872,-6.092835 7.549671,-6.155881 -0.0712,-0.06304 -0.556542,-0.421681 -1.078532,-0.796972 -0.521991,-0.375291 -1.350232,-1.026148 -1.840538,-1.446351 -0.490305,-0.420204 -0.973254,-0.764006 -1.07322,-0.764006 -0.09997,0 -0.730924,0.45395 -1.402131,1.008777 -2.787541,2.304216 -6.604588,4.504457 -8.800327,5.07273 -1.756837,0.454682 -2.790692,0.479679 -4.047718,0.09787 -2.038128,-0.619064 -3.189004,-2.172829 -3.503795,-4.730383 -0.213256,-1.732622 -0.07165,-14.457301 0.180717,-16.238732 0.324186,-2.288431 1.303072,-3.80511 2.916499,-4.518806 0.992467,-0.439015 1.851574,-0.522854 3.211443,-0.313398 0.854786,0.131659 3.272949,0.173822 7.923951,0.138159 l 6.69374,-0.05132 -7.128733,-5.584273 c -3.920802,-3.07135 -7.128731,-5.61745 -7.128731,-5.658001 0,-0.0759 2.734923,-3.618214 3.085251,-3.996067 0.160342,-0.172941 1.916657,1.136248 9.667419,7.206273 5.209315,4.079684 9.698498,7.583848 9.975963,7.787032 l 0.504482,0.369424 0.76095,-0.478535 c 0.987665,-0.621107 2.571107,-1.237721 4.028132,-1.568608 1.532428,-0.348011 5.8707,-0.346495 9.051688,0.0032 1.294475,0.142291 2.860447,0.259556 3.479938,0.260588 1.218951,0.002 2.280606,0.233754 3.458845,0.754944 l 0.749076,0.331353 9.29461,-7.312092 c 5.112034,-4.021651 9.378104,-7.363696 9.480157,-7.426767 0.118155,-0.07302 0.761355,0.618519 1.770896,1.904 0.871941,1.110272 1.591355,2.074845 1.598699,2.143497 0.0073,0.06865 -3.868433,3.178494 -8.612837,6.91076 l -8.62619,6.785937 1.780079,1.333911 c 0.979044,0.733652 2.286234,1.731918 2.904865,2.218369 l 1.124786,0.884456 0.931542,-0.690264 c 2.15961,-1.600252 5.41332,-3.339916 8.357937,-4.468744 1.208693,-0.463357 5.340927,-1.631269 5.771654,-1.631269 0.07407,0 0.678046,0.441032 1.342171,0.980071 l 1.2075,0.980069 -0.044,10.052917 -0.044,10.052916 -0.46165,0.833228 c -1.660691,2.997377 -7.363257,4.390724 -14.297322,3.493365 -0.722566,-0.09351 -1.34777,-0.136004 -1.389343,-0.09443 -0.04157,0.04157 2.311336,1.944458 5.228687,4.228633 2.917351,2.284174 5.304273,4.221586 5.304273,4.305359 0,0.1233 -3.167553,4.27148 -3.225697,4.224322 -0.0093,-0.0076 -4.584918,-3.602043 -10.167965,-7.987717 l 0,0 z m -20.726735,-7.57265 c 0.677936,-0.120853 1.851075,-0.420887 2.606975,-0.666743 1.609568,-0.52351 4.543901,-1.964275 4.543901,-2.231068 0,-0.101529 -1.545515,-1.397137 -3.434478,-2.879127 l -3.434479,-2.694529 -4.553561,3.573676 c -2.504459,1.965521 -4.683155,3.699193 -4.841548,3.852601 -0.276639,0.267938 -0.248594,0.290029 0.711806,0.560716 2.552458,0.719408 5.976033,0.916831 8.401384,0.484474 l 0,0 z M 82.43875,59.773658 c 1.51986,-0.265041 2.827314,-0.712387 3.280337,-1.122367 0.285573,-0.258439 0.298609,-0.638072 0.298609,-8.696109 l 0,-8.425873 -1.146798,0.320839 c -3.243814,0.907522 -7.512371,3.12335 -10.343609,5.369415 -0.852541,0.676334 -1.065603,0.771866 -1.739969,0.780169 l -0.768467,0.0095 -2.847222,4.322763 c -1.565973,2.37752 -2.867166,4.42155 -2.891541,4.542289 -0.06103,0.302287 3.300078,1.619211 5.642437,2.210782 3.559271,0.898906 7.740385,1.172696 10.516223,0.68863 l 0,3e-6 z M 17.254359,58.893054 c 1.154579,-0.384921 2.910109,-1.30297 4.463568,-2.33421 3.804792,-2.525755 9.763451,-8.427654 13.685458,-13.5551 0.996965,-1.303382 1.126428,-1.544069 0.933193,-1.734903 -0.333449,-0.329308 -21.640276,-0.389405 -21.821875,-0.06155 -0.346215,0.625051 -0.494863,3.647819 -0.493021,10.025652 0.002,6.761846 0.05701,7.551226 0.54854,7.863765 0.355302,0.225919 1.702136,0.123732 2.684137,-0.203652 l 0,0 z m 23.36596,-5.771682 c 2.82745,-2.22245 5.200182,-4.099924 5.272739,-4.172164 0.113892,-0.113394 -5.980707,-5.067638 -6.237644,-5.070525 -0.05221,-6.33e-4 -0.650003,0.71968 -1.328436,1.600591 -1.677776,2.178508 -3.934531,4.783137 -5.88767,6.795247 l -1.625227,1.674297 0.662202,0.540209 c 1.447542,1.180872 3.541707,2.665038 3.765949,2.668986 0.130498,0.0023 2.550637,-1.814191 5.378087,-4.036641 l 0,0 z m 22.795109,-0.188007 c 0.730327,-0.761236 1.785234,-1.953511 2.344239,-2.649498 0.987872,-1.22995 2.858337,-3.989084 2.858337,-4.216352 0,-0.138304 -2.87201,-2.361367 -4.242383,-3.283796 l -0.999715,-0.672929 -1.135702,0.875496 c -3.229376,2.489472 -7.304684,5.747313 -7.304684,5.839433 0,0.152148 6.768865,5.470903 6.976869,5.4822 0.09635,0.0052 0.772713,-0.613317 1.503039,-1.374554 l 0,0 z M 54.431977,42.25713 58.098723,39.369515 56.042584,39.265942 c -1.130877,-0.05696 -2.747343,-0.181529 -3.59215,-0.276813 -3.40791,-0.384365 -6.890018,-0.151701 -8.497019,0.567749 l -0.641448,0.287174 3.502504,2.736351 c 2.094556,1.636384 3.592602,2.70178 3.726633,2.650347 0.123271,-0.0473 1.874164,-1.385433 3.890873,-2.97362 z"
     id="path3224"
     inkscape:connector-curvature="0"
     transform="scale(0.8,0.8)" />
</svg>
