<?xml version="1.0" encoding="UTF-8" standalone="no"?>
<svg
   xmlns:dc="http://purl.org/dc/elements/1.1/"
   xmlns:cc="http://creativecommons.org/ns#"
   xmlns:rdf="http://www.w3.org/1999/02/22-rdf-syntax-ns#"
   xmlns:svg="http://www.w3.org/2000/svg"
   xmlns="http://www.w3.org/2000/svg"
   xmlns:sodipodi="http://sodipodi.sourceforge.net/DTD/sodipodi-0.dtd"
   xmlns:inkscape="http://www.inkscape.org/namespaces/inkscape"
   width="100"
   height="100"
   viewBox="0 0 80 80"
   version="1.1"
   id="svg2"
   inkscape:version="0.48.4 r9939"
   sodipodi:docname="do_not_dryclean.svg">
  <metadata
     id="metadata15">
    <rdf:RDF>
      <cc:Work
         rdf:about="">
        <dc:format>image/svg+xml</dc:format>
        <dc:type
           rdf:resource="http://purl.org/dc/dcmitype/StillImage" />
        <dc:title></dc:title>
      </cc:Work>
    </rdf:RDF>
  </metadata>
  <defs
     id="defs13" />
  <sodipodi:namedview
     pagecolor="#ffffff"
     bordercolor="#666666"
     borderopacity="1"
     objecttolerance="10"
     gridtolerance="10"
     guidetolerance="10"
     inkscape:pageopacity="0"
     inkscape:pageshadow="2"
     inkscape:window-width="960"
     inkscape:window-height="1028"
     id="namedview11"
     showgrid="false"
     inkscape:zoom="4.363859"
     inkscape:cx="12.289469"
     inkscape:cy="45.276528"
     inkscape:window-x="960"
     inkscape:window-y="24"
     inkscape:window-maximized="0"
     inkscape:current-layer="svg2" />
  <g
     id="surface1"
     transform="matrix(1.9624377,0,0,1.9668601,-1.4685133,10.717689)">
    <path
       style="fill:none;stroke:#211e1e;stroke-width:22.5;stroke-linecap:butt;stroke-linejoin:miter;stroke-miterlimit:4;stroke-opacity:1"
       d="m 81.25,150.625 c 0,72.14844 58.47656,130.625 130.625,130.625 72.14844,0 130.625,-58.47656 130.625,-130.625 C 342.5,78.476562 284.02344,20 211.875,20 139.72656,20 81.25,78.476562 81.25,150.625 z m 0,0"
       transform="matrix(0.1,0,0,-0.1,0,30)"
       id="path5"
       inkscape:connector-curvature="0" />
    <path
       style="fill:none;stroke:#211e1e;stroke-width:30;stroke-linecap:butt;stroke-linejoin:miter;stroke-miterlimit:4;stroke-opacity:1"
       d="M 22.5,66.601562 400.15625,234.64844"
       transform="matrix(0.1,0,0,-0.1,0,30)"
       id="path7"
       inkscape:connector-curvature="0" />
    <path
       style="fill:none;stroke:#211e1e;stroke-width:30;stroke-linecap:butt;stroke-linejoin:miter;stroke-miterlimit:4;stroke-opacity:1"
       d="M 22.5,235.89844 400.15625,67.851562"
       transform="matrix(0.1,0,0,-0.1,0,30)"
       id="path9"
       inkscape:connector-curvature="0" />
  </g>
  <path
     style="fill:#ffffff"
     d="M 47.785575,84.787704 C 41.191533,84.137857 36.094067,82.395933 31.057261,79.071245 27.256907,76.562711 23.752214,73.063581 21.284929,69.314425 20.631933,68.322168 20.01772,67.51032 19.92001,67.51032 c -0.09771,0 -3.406018,1.439008 -7.351795,3.197798 C 8.6224378,72.466905 5.3230416,73.833242 5.2362232,73.744421 4.9995763,73.502312 2.527117,67.928388 2.5297203,67.642865 2.53096,67.506949 5.1862929,66.214384 8.430461,64.770504 c 3.244168,-1.443883 6.530432,-2.908673 7.302809,-3.255092 l 1.404322,-0.629853 -0.43264,-1.557163 c -1.561949,-5.621783 -1.556388,-12.483387 0.01491,-18.397393 0.25076,-0.943802 0.382546,-1.784911 0.292859,-1.86913 C 16.881603,38.93875 5.9579592,34.012754 3.056488,32.768336 L 2.3251566,32.454674 3.703461,29.415838 c 0.7580674,-1.67136 1.4530337,-3.115968 1.5443696,-3.210241 0.091336,-0.09427 3.4049072,1.272065 7.3634924,3.036304 3.958584,1.764239 7.306277,3.207707 7.439316,3.207707 0.13304,0 0.771776,-0.799178 1.419415,-1.775951 2.964328,-4.470818 8.149331,-9.104942 12.857547,-11.4915 7.349346,-3.725328 16.255273,-4.739126 24.170517,-2.751428 6.227119,1.563771 11.903439,4.828834 16.359592,9.410161 1.773453,1.823272 3.897651,4.505476 4.703064,5.938513 0.278006,0.494648 0.582299,0.89936 0.676204,0.89936 0.0939,0 3.394546,-1.441064 7.334758,-3.202365 3.940212,-1.761301 7.181151,-3.179198 7.202082,-3.150881 0.170968,0.231275 2.858594,6.420946 2.806317,6.46302 -0.03736,0.03007 -3.264643,1.473291 -7.171735,3.207155 -3.907092,1.733865 -7.14598,3.191309 -7.197526,3.238764 -0.05155,0.04746 0.130258,0.903568 0.404011,1.902473 1.50735,5.500191 1.522022,12.169373 0.03935,17.885921 -0.243922,0.940461 -0.422379,1.723926 -0.396569,1.741033 0.02581,0.01712 3.243641,1.449936 7.150733,3.184062 3.907092,1.734126 7.129948,3.176691 7.1619,3.205702 0.03195,0.02901 -0.583085,1.505397 -1.366752,3.280857 l -1.424849,3.228111 -0.695641,-0.302141 C 93.700454,73.194298 90.47337,71.758472 86.911763,70.16975 83.350154,68.581028 80.39526,67.281165 80.345332,67.281165 c -0.04993,0 -0.348421,0.438259 -0.663317,0.973908 -1.131528,1.924778 -2.948266,4.217728 -4.915754,6.204296 -5.246904,5.29779 -11.571217,8.614863 -18.87253,9.898562 -1.871662,0.329069 -6.591464,0.579242 -8.108156,0.429773 l 0,0 z m 7.553154,-5.730526 C 62.14643,77.94686 68.92453,73.875523 73.191421,68.33377 c 1.840925,-2.390958 2.294803,-3.125649 2.056796,-3.329331 -0.336663,-0.28811 -24.582753,-11.014263 -24.897351,-11.014263 -0.340497,0 -24.924387,10.929132 -25.20224,11.204028 -0.233981,0.231491 1.333126,2.569036 2.898194,4.323041 7.058297,7.910377 16.67424,11.271648 27.291909,9.539933 l 0,0 z M 31.92052,54.298456 c 5.271227,-2.351151 9.50204,-4.34514 9.401805,-4.431087 -0.343913,-0.294888 -19.10227,-8.542362 -19.202072,-8.44256 -0.05487,0.05486 -0.318039,0.971021 -0.584832,2.035905 -0.616055,2.458933 -0.864938,8.334157 -0.463304,10.936918 0.318556,2.064382 0.877431,4.175644 1.10534,4.175644 0.08746,0 4.471837,-1.923669 9.743063,-4.27482 z m 47.26312,0.03545 c 0.381619,-2.637982 0.418522,-5.219947 0.109722,-7.676692 -0.309412,-2.461592 -0.941736,-5.0411 -1.236271,-5.04325 -0.138719,-9.16e-4 -4.463616,1.87763 -9.610883,4.174762 -9.061026,4.043769 -9.337971,4.186109 -8.707889,4.475552 0.357928,0.164421 4.672449,2.093395 9.587823,4.286608 l 8.937044,3.987658 0.294476,-0.956543 c 0.161962,-0.526101 0.443651,-1.987743 0.625978,-3.248095 z M 62.804438,40.523639 c 6.718163,-2.995361 12.252536,-5.559199 12.29861,-5.697417 0.127604,-0.382815 -2.563791,-3.907061 -4.265759,-5.585793 -5.655832,-5.578619 -12.698305,-8.476533 -20.601693,-8.477411 -2.941373,-3.27e-4 -5.239484,0.259504 -7.376853,0.834048 -5.140664,1.381857 -9.6364,3.942352 -13.350191,7.603449 -1.658933,1.635394 -4.294742,4.984979 -4.294742,5.457754 0,0.209495 24.635633,11.29874 25.119551,11.307072 0.14093,0.0024 5.752915,-2.44634 12.471077,-5.441702 z"
     id="path3287"
     inkscape:connector-curvature="0"
     transform="scale(0.8,0.8)" />
</svg>
