<?xml version="1.0" encoding="UTF-8" standalone="no"?>
<svg
   xmlns:dc="http://purl.org/dc/elements/1.1/"
   xmlns:cc="http://creativecommons.org/ns#"
   xmlns:rdf="http://www.w3.org/1999/02/22-rdf-syntax-ns#"
   xmlns:svg="http://www.w3.org/2000/svg"
   xmlns="http://www.w3.org/2000/svg"
   xmlns:sodipodi="http://sodipodi.sourceforge.net/DTD/sodipodi-0.dtd"
   xmlns:inkscape="http://www.inkscape.org/namespaces/inkscape"
   width="100"
   height="100"
   viewBox="0 0 80 80"
   version="1.1"
   id="svg2"
   inkscape:version="0.48.4 r9939"
   sodipodi:docname="dry_flat.svg">
  <metadata
     id="metadata13">
    <rdf:RDF>
      <cc:Work
         rdf:about="">
        <dc:format>image/svg+xml</dc:format>
        <dc:type
           rdf:resource="http://purl.org/dc/dcmitype/StillImage" />
        <dc:title></dc:title>
      </cc:Work>
    </rdf:RDF>
  </metadata>
  <defs
     id="defs11" />
  <sodipodi:namedview
     pagecolor="#ffffff"
     bordercolor="#666666"
     borderopacity="1"
     objecttolerance="10"
     gridtolerance="10"
     guidetolerance="10"
     inkscape:pageopacity="0"
     inkscape:pageshadow="2"
     inkscape:window-width="960"
     inkscape:window-height="1028"
     id="namedview9"
     showgrid="false"
     inkscape:zoom="3.2551724"
     inkscape:cx="-10.538451"
     inkscape:cy="-5.5508506"
     inkscape:window-x="960"
     inkscape:window-y="24"
     inkscape:window-maximized="0"
     inkscape:current-layer="svg2" />
  <g
     id="surface1"
     transform="matrix(2.010865,0,0,1.9885779,10.730638,11.313028)">
    <path
       style="fill:none;stroke:#211e1e;stroke-width:30;stroke-linecap:butt;stroke-linejoin:miter;stroke-miterlimit:4;stroke-opacity:1"
       d="M 62.148438,147.5 231.25,147.5"
       transform="matrix(0.1,0,0,-0.1,0,29)"
       id="path5"
       inkscape:connector-curvature="0" />
    <path
       style="fill:none;stroke:#211e1e;stroke-width:22.5;stroke-linecap:butt;stroke-linejoin:miter;stroke-miterlimit:4;stroke-opacity:1"
       d="m 17.5,16.25 260,0 0,261.25 -260,0 z m 0,0"
       transform="matrix(0.1,0,0,-0.1,0,29)"
       id="path7"
       inkscape:connector-curvature="0" />
  </g>
  <path
     style="fill:#ffffff"
     d="m 15.082312,49.731994 0,-35.174788 35.32839,0 35.32839,0 0,35.174788 0,35.174789 -35.32839,0 -35.32839,0 0,-35.174789 z m 65.434322,-0.153601 0,-29.798729 -29.952331,0 -29.95233,0 0,29.798729 0,29.798729 29.95233,0 29.952331,0 0,-29.798729 z"
     id="path3174"
     inkscape:connector-curvature="0"
     transform="scale(0.8,0.8)" />
  <path
     style="fill:#ffffff"
     d="m 29.213668,49.578393 0,-3.686441 21.043432,0 21.043432,0 0,3.686441 0,3.68644 -21.043432,0 -21.043432,0 0,-3.68644 z"
     id="path3176"
     inkscape:connector-curvature="0"
     transform="scale(0.8,0.8)" />
</svg>
