<?xml version="1.0" encoding="UTF-8" standalone="no"?>
<svg
   xmlns:dc="http://purl.org/dc/elements/1.1/"
   xmlns:cc="http://creativecommons.org/ns#"
   xmlns:rdf="http://www.w3.org/1999/02/22-rdf-syntax-ns#"
   xmlns:svg="http://www.w3.org/2000/svg"
   xmlns="http://www.w3.org/2000/svg"
   xmlns:sodipodi="http://sodipodi.sourceforge.net/DTD/sodipodi-0.dtd"
   xmlns:inkscape="http://www.inkscape.org/namespaces/inkscape"
   width="100"
   height="100"
   viewBox="0 0 80 80"
   version="1.1"
   id="svg2"
   inkscape:version="0.48.4 r9939"
   sodipodi:docname="dry_in_shade.svg">
  <metadata
     id="metadata17">
    <rdf:RDF>
      <cc:Work
         rdf:about="">
        <dc:format>image/svg+xml</dc:format>
        <dc:type
           rdf:resource="http://purl.org/dc/dcmitype/StillImage" />
        <dc:title></dc:title>
      </cc:Work>
    </rdf:RDF>
  </metadata>
  <defs
     id="defs15" />
  <sodipodi:namedview
     pagecolor="#ffffff"
     bordercolor="#666666"
     borderopacity="1"
     objecttolerance="10"
     gridtolerance="10"
     guidetolerance="10"
     inkscape:pageopacity="0"
     inkscape:pageshadow="2"
     inkscape:window-width="960"
     inkscape:window-height="1028"
     id="namedview13"
     showgrid="false"
     inkscape:zoom="4"
     inkscape:cx="60.216137"
     inkscape:cy="32.041217"
     inkscape:window-x="960"
     inkscape:window-y="24"
     inkscape:window-maximized="0"
     inkscape:current-layer="svg2" />
  <path
     inkscape:connector-curvature="0"
     id="path7"
     d="m 14.249105,65.750896 51.957259,0 0,-51.899796 -51.957259,0 z m 0,0"
     style="fill:none;stroke:#211e1e;stroke-width:4.498209;stroke-linecap:butt;stroke-linejoin:miter;stroke-miterlimit:4;stroke-opacity:1" />
  <path
     inkscape:connector-curvature="0"
     id="path9"
     d="m 13.912786,30.381684 c 0,0 16.45613,-16.23428 16.45613,-16.14851 0,0.08577 7.477217,0.202735 7.477217,0.202735 l -23.933347,23.696434 0,-7.750659"
     style="fill:#211e1e;fill-opacity:1;fill-rule:nonzero;stroke:none" />
  <path
     inkscape:connector-curvature="0"
     id="path11"
     d="m 12.763048,47.200773 33.287685,-33.139142 7.68057,0 -40.968255,40.5935 0,-7.454358"
     style="fill:#211e1e;fill-opacity:1;fill-rule:nonzero;stroke:none" />
  <path
     style="fill:#ffffff"
     d="m 15.066137,49.783783 0,-35.125 35.25,0 35.25,0 0,35.125 0,35.125 -35.25,0 -35.25,0 0,-35.125 z m 65,-0.125 0,-29.75 -7.726235,0 -7.726233,0 -22.023767,21.801592 -22.023765,21.80159 0,7.94841 0,7.948408 29.75,0 29.75,0 0,-29.75 z m -34.626172,-19.733792 9.998827,-10.016208 -5.083168,0 -5.083167,0 -12.35316,12.172977 -12.35316,12.172978 0,5.107075 0,5.107075 7.4375,-7.263845 C 32.094262,43.20993 39.940609,35.433906 45.439965,29.924991 z M 32.68753,23.1762 l 3.246393,-3.267417 -7.683893,0 -7.683893,0 0,7.529224 0,7.529224 4.4375,-4.261806 C 27.444262,28.361431 30.902014,24.97328 32.68753,23.1762 z"
     id="path3153"
     inkscape:connector-curvature="0"
     transform="scale(0.8,0.8)" />
</svg>
