<?xml version="1.0" encoding="UTF-8" standalone="no"?>
<svg
   xmlns:dc="http://purl.org/dc/elements/1.1/"
   xmlns:cc="http://creativecommons.org/ns#"
   xmlns:rdf="http://www.w3.org/1999/02/22-rdf-syntax-ns#"
   xmlns:svg="http://www.w3.org/2000/svg"
   xmlns="http://www.w3.org/2000/svg"
   xmlns:sodipodi="http://sodipodi.sourceforge.net/DTD/sodipodi-0.dtd"
   xmlns:inkscape="http://www.inkscape.org/namespaces/inkscape"
   width="100"
   height="100"
   viewBox="0 0 80 80"
   version="1.1"
   id="svg2"
   inkscape:version="0.48.4 r9939"
   sodipodi:docname="ir_talll.svg">
  <metadata
     id="metadata13">
    <rdf:RDF>
      <cc:Work
         rdf:about="">
        <dc:format>image/svg+xml</dc:format>
        <dc:type
           rdf:resource="http://purl.org/dc/dcmitype/StillImage" />
      </cc:Work>
    </rdf:RDF>
  </metadata>
  <defs
     id="defs11" />
  <sodipodi:namedview
     pagecolor="#ffffff"
     bordercolor="#666666"
     borderopacity="1"
     objecttolerance="10"
     gridtolerance="10"
     guidetolerance="10"
     inkscape:pageopacity="0"
     inkscape:pageshadow="2"
     inkscape:window-width="960"
     inkscape:window-height="1028"
     id="namedview9"
     showgrid="false"
     inkscape:zoom="3.2551724"
     inkscape:cx="6.2195727"
     inkscape:cy="-5.5896722"
     inkscape:window-x="960"
     inkscape:window-y="24"
     inkscape:window-maximized="0"
     inkscape:current-layer="svg2" />
  <g
     id="surface1"
     transform="matrix(1.9958459,0,0,1.9958459,4.313615,10.923486)">
    <path
       style="fill:none;stroke:#211e1e;stroke-width:22.5;stroke-linecap:butt;stroke-linejoin:miter;stroke-miterlimit:4;stroke-opacity:1"
       d="m 91.25,273.75 215,0 32.26562,-258.476562 -320.820308,0 C 17.695312,15.273438 41.25,130 76.25,155 101.99219,173.39844 130,172.5 130,172.5 l 181.25,0"
       transform="matrix(0.1,0,0,-0.1,0,29)"
       id="path5"
       inkscape:connector-curvature="0" />
    <path
       style="fill:#211e1e;fill-opacity:1;fill-rule:nonzero;stroke:none"
       d="m 16.472656,19.4375 c 0,-1.226562 0.996094,-2.222656 2.222656,-2.222656 1.226563,0 2.222657,0.996094 2.222657,2.222656 0,1.226562 -0.996094,2.222656 -2.222657,2.222656 -1.226562,0 -2.222656,-0.996094 -2.222656,-2.222656"
       id="path7"
       inkscape:connector-curvature="0" />
  </g>
</svg>
